<mxfile host="65bd71144e">
    <diagram id="ocYq_ILIX-KZb9RmqHy8" name="UI_logic">
        <mxGraphModel dx="2924" dy="2239" grid="1" gridSize="10" guides="1" tooltips="1" connect="1" arrows="1" fold="1" page="1" pageScale="1" pageWidth="850" pageHeight="1100" math="0" shadow="0">
            <root>
                <mxCell id="0"/>
                <mxCell id="1" parent="0"/>
                <mxCell id="48" style="edgeStyle=none;html=1;entryX=0.625;entryY=1;entryDx=0;entryDy=0;exitX=0.25;exitY=1;exitDx=0;exitDy=0;fillColor=#1ba1e2;strokeColor=#006EAF;strokeWidth=3;" parent="1" source="14" target="47" edge="1">
                    <mxGeometry relative="1" as="geometry">
                        <Array as="points">
                            <mxPoint x="-480" y="520"/>
                            <mxPoint x="-685" y="520"/>
                        </Array>
                    </mxGeometry>
                </mxCell>
                <mxCell id="49" value="&amp;lt;Long_Press(3sec)&amp;gt;" style="edgeLabel;html=1;align=center;verticalAlign=middle;resizable=0;points=[];" parent="48" vertex="1" connectable="0">
                    <mxGeometry x="0.2217" y="1" relative="1" as="geometry">
                        <mxPoint x="51" y="-1" as="offset"/>
                    </mxGeometry>
                </mxCell>
                <mxCell id="51" style="edgeStyle=none;html=1;fontColor=default;fillColor=#a0522d;strokeColor=#6D1F00;strokeWidth=3;entryX=0;entryY=0.75;entryDx=0;entryDy=0;" parent="1" source="47" target="14" edge="1">
                    <mxGeometry relative="1" as="geometry">
                        <mxPoint x="-660" y="360" as="targetPoint"/>
                    </mxGeometry>
                </mxCell>
                <mxCell id="52" value="&amp;lt;Press&amp;gt;&lt;br&gt;OR&lt;br&gt;Timeout(5sec)" style="edgeLabel;html=1;align=center;verticalAlign=middle;resizable=0;points=[];fontColor=default;" parent="51" vertex="1" connectable="0">
                    <mxGeometry x="-0.005" y="-1" relative="1" as="geometry">
                        <mxPoint x="-10" y="-1" as="offset"/>
                    </mxGeometry>
                </mxCell>
                <mxCell id="11" style="edgeStyle=none;html=1;entryX=0.5;entryY=0;entryDx=0;entryDy=0;fillColor=#e3c800;strokeColor=#B09500;strokeWidth=3;" parent="1" source="2" target="10" edge="1">
                    <mxGeometry relative="1" as="geometry"/>
                </mxCell>
                <mxCell id="41" value="&amp;lt;Press&amp;gt;" style="edgeLabel;html=1;align=center;verticalAlign=middle;resizable=0;points=[];" parent="11" vertex="1" connectable="0">
                    <mxGeometry x="0.2621" y="-1" relative="1" as="geometry">
                        <mxPoint as="offset"/>
                    </mxGeometry>
                </mxCell>
                <mxCell id="2" value="&amp;nbsp; OFF" style="rounded=1;whiteSpace=wrap;html=1;verticalAlign=top;align=left;" parent="1" vertex="1">
                    <mxGeometry x="120" y="-320" width="160" height="160" as="geometry"/>
                </mxCell>
                <mxCell id="5" style="edgeStyle=none;html=1;exitX=0;exitY=0.5;exitDx=0;exitDy=0;entryX=0.5;entryY=0;entryDx=0;entryDy=0;dashed=1;strokeWidth=3;fillColor=#1ba1e2;strokeColor=#006EAF;" parent="1" source="2" target="14" edge="1">
                    <mxGeometry relative="1" as="geometry">
                        <Array as="points"/>
                    </mxGeometry>
                </mxCell>
                <mxCell id="7" value="&amp;lt;Multi_Press(2)&amp;gt;" style="edgeLabel;html=1;align=center;verticalAlign=middle;resizable=0;points=[];" parent="5" vertex="1" connectable="0">
                    <mxGeometry x="0.2617" y="2" relative="1" as="geometry">
                        <mxPoint x="88" y="-96" as="offset"/>
                    </mxGeometry>
                </mxCell>
                <mxCell id="9" value="+last_state" style="text;html=1;strokeColor=none;fillColor=none;align=center;verticalAlign=middle;whiteSpace=wrap;rounded=0;" parent="1" vertex="1">
                    <mxGeometry x="130" y="-300" width="60" height="30" as="geometry"/>
                </mxCell>
                <mxCell id="15" style="edgeStyle=none;html=1;entryX=1;entryY=0.5;entryDx=0;entryDy=0;fillColor=#e3c800;strokeColor=#B09500;" parent="1" source="10" target="14" edge="1">
                    <mxGeometry relative="1" as="geometry">
                        <Array as="points">
                            <mxPoint x="-40" y="400"/>
                        </Array>
                    </mxGeometry>
                </mxCell>
                <mxCell id="18" value="last_state == White" style="edgeLabel;html=1;align=center;verticalAlign=middle;resizable=0;points=[];" parent="15" vertex="1" connectable="0">
                    <mxGeometry x="-0.6393" y="2" relative="1" as="geometry">
                        <mxPoint x="-39" y="-12" as="offset"/>
                    </mxGeometry>
                </mxCell>
                <mxCell id="16" style="edgeStyle=none;html=1;entryX=0.5;entryY=0;entryDx=0;entryDy=0;fillColor=#e3c800;strokeColor=#B09500;" parent="1" source="10" target="13" edge="1">
                    <mxGeometry relative="1" as="geometry"/>
                </mxCell>
                <mxCell id="19" value="last_state == Colored_White" style="edgeLabel;html=1;align=center;verticalAlign=middle;resizable=0;points=[];" parent="16" vertex="1" connectable="0">
                    <mxGeometry x="0.3292" y="3" relative="1" as="geometry">
                        <mxPoint x="67" y="-23" as="offset"/>
                    </mxGeometry>
                </mxCell>
                <mxCell id="17" style="edgeStyle=none;html=1;fillColor=#e3c800;strokeColor=#B09500;" parent="1" source="10" target="12" edge="1">
                    <mxGeometry relative="1" as="geometry">
                        <Array as="points">
                            <mxPoint x="440" y="400"/>
                        </Array>
                    </mxGeometry>
                </mxCell>
                <mxCell id="20" value="last_state == Color_Pattern" style="edgeLabel;html=1;align=center;verticalAlign=middle;resizable=0;points=[];" parent="17" vertex="1" connectable="0">
                    <mxGeometry x="-0.2417" y="1" relative="1" as="geometry">
                        <mxPoint x="-6" y="-9" as="offset"/>
                    </mxGeometry>
                </mxCell>
                <mxCell id="10" value="switch(last_state)" style="rhombus;whiteSpace=wrap;html=1;" parent="1" vertex="1">
                    <mxGeometry x="160" y="360" width="80" height="80" as="geometry"/>
                </mxCell>
                <mxCell id="25" style="edgeStyle=none;html=1;entryX=1;entryY=1;entryDx=0;entryDy=0;exitX=0;exitY=0;exitDx=0;exitDy=0;fillColor=#a0522d;strokeColor=#6D1F00;strokeWidth=3;" parent="1" source="12" target="2" edge="1">
                    <mxGeometry relative="1" as="geometry">
                        <mxPoint x="640" y="510" as="sourcePoint"/>
                    </mxGeometry>
                </mxCell>
                <mxCell id="26" value="&amp;lt;Press&amp;gt;" style="edgeLabel;html=1;align=center;verticalAlign=middle;resizable=0;points=[];" parent="25" vertex="1" connectable="0">
                    <mxGeometry x="-0.8259" relative="1" as="geometry">
                        <mxPoint y="-27" as="offset"/>
                    </mxGeometry>
                </mxCell>
                <mxCell id="32" style="edgeStyle=none;html=1;exitX=0;exitY=0.75;exitDx=0;exitDy=0;entryX=1;entryY=0.75;entryDx=0;entryDy=0;strokeWidth=3;fillColor=#1ba1e2;strokeColor=#006EAF;dashed=1;" parent="1" source="12" target="14" edge="1">
                    <mxGeometry relative="1" as="geometry"/>
                </mxCell>
                <mxCell id="40" value="&amp;lt;Multi_Press (2)&amp;gt;" style="edgeLabel;html=1;align=center;verticalAlign=middle;resizable=0;points=[];" parent="32" vertex="1" connectable="0">
                    <mxGeometry x="0.4602" y="-3" relative="1" as="geometry">
                        <mxPoint x="88" y="13" as="offset"/>
                    </mxGeometry>
                </mxCell>
                <mxCell id="97" style="edgeStyle=none;html=1;entryX=0.375;entryY=1;entryDx=0;entryDy=0;fontColor=default;startArrow=none;startFill=0;fillColor=#1ba1e2;strokeColor=#006EAF;strokeWidth=3;" parent="1" source="12" target="56" edge="1">
                    <mxGeometry relative="1" as="geometry">
                        <Array as="points">
                            <mxPoint x="840" y="720"/>
                            <mxPoint x="1445" y="720"/>
                        </Array>
                    </mxGeometry>
                </mxCell>
                <mxCell id="98" value="&amp;lt;Long_Press(3sec)&amp;gt;" style="edgeLabel;html=1;align=center;verticalAlign=middle;resizable=0;points=[];fontColor=default;" parent="97" vertex="1" connectable="0">
                    <mxGeometry x="0.4333" y="-1" relative="1" as="geometry">
                        <mxPoint x="-75" y="3" as="offset"/>
                    </mxGeometry>
                </mxCell>
                <mxCell id="100" style="edgeStyle=none;html=1;exitX=0.75;exitY=0;exitDx=0;exitDy=0;entryX=0;entryY=0.5;entryDx=0;entryDy=0;fontColor=default;startArrow=none;startFill=0;fillColor=#60a917;strokeColor=#2D7600;strokeWidth=3;" parent="1" source="12" target="99" edge="1">
                    <mxGeometry relative="1" as="geometry">
                        <Array as="points">
                            <mxPoint x="880" y="240"/>
                        </Array>
                    </mxGeometry>
                </mxCell>
                <mxCell id="101" value="&amp;lt;Rotate&amp;gt;" style="edgeLabel;html=1;align=center;verticalAlign=middle;resizable=0;points=[];fontColor=default;" parent="100" vertex="1" connectable="0">
                    <mxGeometry x="-0.8463" y="-1" relative="1" as="geometry">
                        <mxPoint y="15" as="offset"/>
                    </mxGeometry>
                </mxCell>
                <mxCell id="12" value="&amp;nbsp; COLOR_PATTERN" style="rounded=1;whiteSpace=wrap;html=1;align=left;verticalAlign=top;" parent="1" vertex="1">
                    <mxGeometry x="760" y="320" width="160" height="160" as="geometry"/>
                </mxCell>
                <mxCell id="27" style="edgeStyle=none;html=1;exitX=0.25;exitY=0;exitDx=0;exitDy=0;entryX=0.25;entryY=1;entryDx=0;entryDy=0;strokeWidth=3;fillColor=#a0522d;strokeColor=#6D1F00;" parent="1" source="13" target="2" edge="1">
                    <mxGeometry relative="1" as="geometry">
                        <Array as="points">
                            <mxPoint x="160" y="630"/>
                            <mxPoint x="160" y="440"/>
                            <mxPoint x="160" y="210"/>
                        </Array>
                    </mxGeometry>
                </mxCell>
                <mxCell id="28" value="&amp;lt;Press&amp;gt;" style="edgeLabel;html=1;align=center;verticalAlign=middle;resizable=0;points=[];" parent="27" vertex="1" connectable="0">
                    <mxGeometry x="-0.5541" y="2" relative="1" as="geometry">
                        <mxPoint x="41" y="-2" as="offset"/>
                    </mxGeometry>
                </mxCell>
                <mxCell id="30" style="edgeStyle=none;html=1;entryX=0;entryY=1;entryDx=0;entryDy=0;fillColor=#1ba1e2;strokeColor=#006EAF;strokeWidth=3;dashed=1;exitX=1;exitY=0;exitDx=0;exitDy=0;" parent="1" source="13" target="12" edge="1">
                    <mxGeometry relative="1" as="geometry"/>
                </mxCell>
                <mxCell id="39" value="&amp;lt;Multi_Press(2)&amp;gt;" style="edgeLabel;html=1;align=center;verticalAlign=middle;resizable=0;points=[];" parent="30" vertex="1" connectable="0">
                    <mxGeometry x="-0.6167" y="-1" relative="1" as="geometry">
                        <mxPoint x="76" y="-13" as="offset"/>
                    </mxGeometry>
                </mxCell>
                <mxCell id="13" value="&amp;nbsp; COLOR_WHITE" style="rounded=1;whiteSpace=wrap;html=1;align=left;verticalAlign=top;fontColor=#ffffff;labelBackgroundColor=none;fillColor=#1ba1e2;strokeColor=#006EAF;" parent="1" vertex="1">
                    <mxGeometry x="120" y="960" width="160" height="160" as="geometry"/>
                </mxCell>
                <mxCell id="21" style="edgeStyle=none;html=1;exitX=1;exitY=0;exitDx=0;exitDy=0;entryX=0;entryY=1;entryDx=0;entryDy=0;fillColor=#a0522d;strokeColor=#6D1F00;strokeWidth=3;" parent="1" source="14" target="2" edge="1">
                    <mxGeometry relative="1" as="geometry">
                        <Array as="points"/>
                    </mxGeometry>
                </mxCell>
                <mxCell id="22" value="&amp;lt;Press&amp;gt;" style="edgeLabel;html=1;align=center;verticalAlign=middle;resizable=0;points=[];" parent="21" vertex="1" connectable="0">
                    <mxGeometry x="0.5082" relative="1" as="geometry">
                        <mxPoint x="-96" y="92" as="offset"/>
                    </mxGeometry>
                </mxCell>
                <mxCell id="29" style="edgeStyle=none;html=1;entryX=0;entryY=0;entryDx=0;entryDy=0;dashed=1;strokeWidth=3;fillColor=#1ba1e2;strokeColor=#006EAF;" parent="1" source="14" target="13" edge="1">
                    <mxGeometry relative="1" as="geometry"/>
                </mxCell>
                <mxCell id="38" value="&amp;lt;Multi_Press(2)&amp;gt;" style="edgeLabel;html=1;align=center;verticalAlign=middle;resizable=0;points=[];" parent="29" vertex="1" connectable="0">
                    <mxGeometry x="-0.3667" y="-4" relative="1" as="geometry">
                        <mxPoint x="15" y="-34" as="offset"/>
                    </mxGeometry>
                </mxCell>
                <mxCell id="43" style="edgeStyle=none;html=1;entryX=0.5;entryY=0;entryDx=0;entryDy=0;exitX=0.25;exitY=0;exitDx=0;exitDy=0;fillColor=#60a917;strokeColor=#2D7600;strokeWidth=3;" parent="1" source="14" target="42" edge="1">
                    <mxGeometry relative="1" as="geometry">
                        <Array as="points">
                            <mxPoint x="-480" y="280"/>
                            <mxPoint x="-700" y="280"/>
                        </Array>
                    </mxGeometry>
                </mxCell>
                <mxCell id="44" value="&amp;lt;Rotate&amp;gt;" style="edgeLabel;html=1;align=center;verticalAlign=middle;resizable=0;points=[];" parent="43" vertex="1" connectable="0">
                    <mxGeometry x="-0.525" y="1" relative="1" as="geometry">
                        <mxPoint x="-142" y="-1" as="offset"/>
                    </mxGeometry>
                </mxCell>
                <mxCell id="14" value="&amp;nbsp; WHITE" style="rounded=1;whiteSpace=wrap;html=1;align=left;verticalAlign=top;" parent="1" vertex="1">
                    <mxGeometry x="-520" y="320" width="160" height="160" as="geometry"/>
                </mxCell>
                <mxCell id="33" value="+Temperature&lt;br&gt;+Intensity&lt;br&gt;&lt;br&gt;lastState = White&amp;nbsp;&amp;nbsp;" style="text;html=1;strokeColor=none;fillColor=none;align=left;verticalAlign=middle;whiteSpace=wrap;rounded=0;" parent="1" vertex="1">
                    <mxGeometry x="-500" y="380" width="60" height="30" as="geometry"/>
                </mxCell>
                <mxCell id="34" value="+Temperature&lt;br&gt;+White_Intensity&lt;br&gt;+Pattern&lt;br&gt;+Pattern_Setting0&lt;br&gt;+Pattern_Setting1&lt;br&gt;&lt;br&gt;lastState = Colored_white" style="text;html=1;strokeColor=none;fillColor=none;align=left;verticalAlign=middle;whiteSpace=wrap;rounded=0;" parent="1" vertex="1">
                    <mxGeometry x="140" y="1030" width="60" height="30" as="geometry"/>
                </mxCell>
                <mxCell id="37" value="+Pattern&lt;br&gt;+Pattern_Color&lt;br&gt;+Pattern_Speed&lt;br&gt;+Pattern_Option2&lt;br&gt;&lt;br&gt;lastState = Color_Pattern" style="text;html=1;strokeColor=none;fillColor=none;align=left;verticalAlign=middle;whiteSpace=wrap;rounded=0;" parent="1" vertex="1">
                    <mxGeometry x="780" y="410" width="60" height="30" as="geometry"/>
                </mxCell>
                <mxCell id="45" style="edgeStyle=none;html=1;entryX=0;entryY=0.25;entryDx=0;entryDy=0;strokeWidth=3;fillColor=#a0522d;strokeColor=#6D1F00;" parent="1" source="42" target="14" edge="1">
                    <mxGeometry relative="1" as="geometry">
                        <Array as="points"/>
                    </mxGeometry>
                </mxCell>
                <mxCell id="42" value="Change Intensity" style="shape=hexagon;perimeter=hexagonPerimeter2;whiteSpace=wrap;html=1;fixedSize=1;" parent="1" vertex="1">
                    <mxGeometry x="-760" y="320" width="120" height="80" as="geometry"/>
                </mxCell>
                <mxCell id="47" value="Change Temperature" style="shape=hexagon;perimeter=hexagonPerimeter2;whiteSpace=wrap;html=1;fixedSize=1;" parent="1" vertex="1">
                    <mxGeometry x="-760" y="400" width="120" height="80" as="geometry"/>
                </mxCell>
                <mxCell id="54" style="edgeStyle=none;html=1;exitX=0.375;exitY=1;exitDx=0;exitDy=0;entryX=0;entryY=0.5;entryDx=0;entryDy=0;fontColor=default;fillColor=#60a917;strokeColor=#2D7600;strokeWidth=3;" parent="1" source="47" target="47" edge="1">
                    <mxGeometry relative="1" as="geometry">
                        <Array as="points">
                            <mxPoint x="-715" y="520"/>
                            <mxPoint x="-800" y="520"/>
                            <mxPoint x="-800" y="440"/>
                        </Array>
                    </mxGeometry>
                </mxCell>
                <mxCell id="55" value="&amp;lt;Rotation&amp;gt;" style="edgeLabel;html=1;align=center;verticalAlign=middle;resizable=0;points=[];fontColor=default;" parent="54" vertex="1" connectable="0">
                    <mxGeometry x="0.2029" y="2" relative="1" as="geometry">
                        <mxPoint x="42" y="14" as="offset"/>
                    </mxGeometry>
                </mxCell>
                <mxCell id="84" style="edgeStyle=none;html=1;entryX=1;entryY=0.5;entryDx=0;entryDy=0;fontColor=default;startArrow=none;startFill=0;exitX=0;exitY=0.5;exitDx=0;exitDy=0;fillColor=#a0522d;strokeColor=#6D1F00;strokeWidth=3;" parent="1" source="56" target="12" edge="1">
                    <mxGeometry relative="1" as="geometry">
                        <Array as="points">
                            <mxPoint x="1160" y="600"/>
                            <mxPoint x="1160" y="400"/>
                        </Array>
                    </mxGeometry>
                </mxCell>
                <mxCell id="79" style="edgeStyle=none;html=1;entryX=0.5;entryY=1;entryDx=0;entryDy=0;fontColor=default;startArrow=none;startFill=0;dashed=1;strokeWidth=3;fillColor=#1ba1e2;strokeColor=#006EAF;" parent="1" source="56" target="69" edge="1">
                    <mxGeometry relative="1" as="geometry"/>
                </mxCell>
                <mxCell id="95" value="&amp;lt;Multi_Press(2)&amp;gt;" style="edgeLabel;html=1;align=center;verticalAlign=middle;resizable=0;points=[];fontColor=default;" parent="79" vertex="1" connectable="0">
                    <mxGeometry x="-0.4111" relative="1" as="geometry">
                        <mxPoint x="40" y="-10" as="offset"/>
                    </mxGeometry>
                </mxCell>
                <mxCell id="89" style="edgeStyle=none;html=1;fontColor=default;startArrow=none;startFill=0;exitX=1;exitY=0.5;exitDx=0;exitDy=0;strokeWidth=3;fillColor=#1ba1e2;strokeColor=#006EAF;" parent="1" source="56" target="63" edge="1">
                    <mxGeometry relative="1" as="geometry">
                        <Array as="points">
                            <mxPoint x="1610" y="600"/>
                            <mxPoint x="1610" y="400"/>
                        </Array>
                    </mxGeometry>
                </mxCell>
                <mxCell id="56" value="Change&lt;br&gt;Pattern_Color&lt;br&gt;previewPattern()" style="shape=hexagon;perimeter=hexagonPerimeter2;whiteSpace=wrap;html=1;fixedSize=1;labelBackgroundColor=none;fontColor=default;" parent="1" vertex="1">
                    <mxGeometry x="1400" y="560" width="120" height="80" as="geometry"/>
                </mxCell>
                <mxCell id="82" style="edgeStyle=none;html=1;entryX=0.5;entryY=1;entryDx=0;entryDy=0;fontColor=default;startArrow=none;startFill=0;fillColor=#e3c800;strokeColor=#B09500;strokeWidth=3;exitX=0.375;exitY=1;exitDx=0;exitDy=0;" parent="1" source="63" target="56" edge="1">
                    <mxGeometry relative="1" as="geometry">
                        <Array as="points">
                            <mxPoint x="1890" y="720"/>
                            <mxPoint x="1460" y="720"/>
                        </Array>
                    </mxGeometry>
                </mxCell>
                <mxCell id="113" value="&amp;lt;Press&amp;gt;" style="edgeLabel;html=1;align=center;verticalAlign=middle;resizable=0;points=[];fontColor=default;" parent="82" vertex="1" connectable="0">
                    <mxGeometry x="-0.7383" y="1" relative="1" as="geometry">
                        <mxPoint x="1" y="-7" as="offset"/>
                    </mxGeometry>
                </mxCell>
                <mxCell id="63" value="Change Pattern&lt;br&gt;previewPattern()" style="shape=hexagon;perimeter=hexagonPerimeter2;whiteSpace=wrap;html=1;fixedSize=1;labelBackgroundColor=none;fontColor=default;" parent="1" vertex="1">
                    <mxGeometry x="1840" y="360" width="120" height="80" as="geometry"/>
                </mxCell>
                <mxCell id="80" style="edgeStyle=none;html=1;entryX=0.5;entryY=1;entryDx=0;entryDy=0;fontColor=default;startArrow=none;startFill=0;dashed=1;strokeWidth=3;fillColor=#1ba1e2;strokeColor=#006EAF;" parent="1" source="69" target="78" edge="1">
                    <mxGeometry relative="1" as="geometry"/>
                </mxCell>
                <mxCell id="94" value="&amp;lt;Multi_Press(2)&amp;gt;" style="edgeLabel;html=1;align=center;verticalAlign=middle;resizable=0;points=[];fontColor=default;" parent="80" vertex="1" connectable="0">
                    <mxGeometry x="-0.5778" relative="1" as="geometry">
                        <mxPoint as="offset"/>
                    </mxGeometry>
                </mxCell>
                <mxCell id="83" style="edgeStyle=none;html=1;entryX=1;entryY=0.5;entryDx=0;entryDy=0;fontColor=default;startArrow=none;startFill=0;strokeWidth=3;fillColor=#a0522d;strokeColor=#6D1F00;exitX=0;exitY=0.5;exitDx=0;exitDy=0;" parent="1" source="69" target="12" edge="1">
                    <mxGeometry relative="1" as="geometry"/>
                </mxCell>
                <mxCell id="85" value="&amp;lt;Press&amp;gt;&lt;br&gt;OR&lt;br&gt;&amp;lt;Timeout(5sec)&amp;gt;" style="edgeLabel;html=1;align=center;verticalAlign=middle;resizable=0;points=[];fontColor=default;labelBackgroundColor=none;" parent="83" vertex="1" connectable="0">
                    <mxGeometry x="0.2821" y="1" relative="1" as="geometry">
                        <mxPoint x="-79" y="-7" as="offset"/>
                    </mxGeometry>
                </mxCell>
                <mxCell id="87" style="edgeStyle=none;html=1;fontColor=default;startArrow=none;startFill=0;fillColor=#1ba1e2;strokeColor=#006EAF;strokeWidth=3;" parent="1" source="69" target="63" edge="1">
                    <mxGeometry relative="1" as="geometry">
                        <Array as="points">
                            <mxPoint x="1610" y="400"/>
                        </Array>
                    </mxGeometry>
                </mxCell>
                <mxCell id="69" value="Change&lt;br&gt;Pattern_Speed&lt;br&gt;previewPattern()" style="shape=hexagon;perimeter=hexagonPerimeter2;whiteSpace=wrap;html=1;fixedSize=1;labelBackgroundColor=none;fontColor=default;" parent="1" vertex="1">
                    <mxGeometry x="1400" y="360" width="120" height="80" as="geometry"/>
                </mxCell>
                <mxCell id="81" style="edgeStyle=none;html=1;exitX=0;exitY=0.75;exitDx=0;exitDy=0;entryX=0;entryY=0.25;entryDx=0;entryDy=0;fontColor=default;startArrow=none;startFill=0;dashed=1;strokeWidth=3;fillColor=#1ba1e2;strokeColor=#006EAF;" parent="1" source="78" target="56" edge="1">
                    <mxGeometry relative="1" as="geometry">
                        <Array as="points">
                            <mxPoint x="1390" y="230"/>
                            <mxPoint x="1390" y="570"/>
                        </Array>
                    </mxGeometry>
                </mxCell>
                <mxCell id="96" value="&amp;lt;Multi_Press(2)&amp;gt;" style="edgeLabel;html=1;align=center;verticalAlign=middle;resizable=0;points=[];fontColor=default;" parent="81" vertex="1" connectable="0">
                    <mxGeometry x="-0.512" relative="1" as="geometry">
                        <mxPoint x="10" as="offset"/>
                    </mxGeometry>
                </mxCell>
                <mxCell id="90" style="edgeStyle=none;html=1;fontColor=default;startArrow=none;startFill=0;strokeWidth=3;fillColor=#1ba1e2;strokeColor=#006EAF;" parent="1" source="78" target="63" edge="1">
                    <mxGeometry relative="1" as="geometry">
                        <Array as="points">
                            <mxPoint x="1610" y="200"/>
                            <mxPoint x="1610" y="400"/>
                        </Array>
                    </mxGeometry>
                </mxCell>
                <mxCell id="91" value="&amp;lt;Long_Press(2sec)&amp;gt;" style="edgeLabel;html=1;align=center;verticalAlign=middle;resizable=0;points=[];fontColor=default;" parent="90" vertex="1" connectable="0">
                    <mxGeometry x="0.8207" y="-1" relative="1" as="geometry">
                        <mxPoint x="-40" y="-1" as="offset"/>
                    </mxGeometry>
                </mxCell>
                <mxCell id="93" style="edgeStyle=none;html=1;entryX=1;entryY=0.5;entryDx=0;entryDy=0;fontColor=default;startArrow=none;startFill=0;strokeWidth=3;fillColor=#a0522d;strokeColor=#6D1F00;exitX=0;exitY=0.5;exitDx=0;exitDy=0;" parent="1" source="78" target="12" edge="1">
                    <mxGeometry relative="1" as="geometry">
                        <Array as="points">
                            <mxPoint x="1160" y="200"/>
                            <mxPoint x="1160" y="400"/>
                        </Array>
                    </mxGeometry>
                </mxCell>
                <mxCell id="78" value="Change&lt;br&gt;Pattern_Option2&lt;br&gt;previewPattern()" style="shape=hexagon;perimeter=hexagonPerimeter2;whiteSpace=wrap;html=1;fixedSize=1;labelBackgroundColor=none;fontColor=default;" parent="1" vertex="1">
                    <mxGeometry x="1400" y="160" width="120" height="80" as="geometry"/>
                </mxCell>
                <mxCell id="102" style="edgeStyle=none;html=1;fontColor=default;startArrow=none;startFill=0;entryX=1;entryY=0.25;entryDx=0;entryDy=0;fillColor=#a0522d;strokeColor=#6D1F00;strokeWidth=3;" parent="1" source="99" target="12" edge="1">
                    <mxGeometry relative="1" as="geometry">
                        <mxPoint x="1054.19" y="790" as="targetPoint"/>
                        <Array as="points">
                            <mxPoint x="1020" y="360"/>
                        </Array>
                    </mxGeometry>
                </mxCell>
                <mxCell id="99" value="Change Intensity" style="shape=hexagon;perimeter=hexagonPerimeter2;whiteSpace=wrap;html=1;fixedSize=1;labelBackgroundColor=none;fontColor=default;" parent="1" vertex="1">
                    <mxGeometry x="960" y="200" width="120" height="80" as="geometry"/>
                </mxCell>
                <mxCell id="103" style="edgeStyle=none;html=1;exitX=0.625;exitY=1;exitDx=0;exitDy=0;entryX=1;entryY=0.75;entryDx=0;entryDy=0;fontColor=default;startArrow=none;startFill=0;strokeWidth=3;fillColor=#60a917;strokeColor=#2D7600;" parent="1" source="56" target="56" edge="1">
                    <mxGeometry relative="1" as="geometry">
                        <Array as="points">
                            <mxPoint x="1475" y="680"/>
                            <mxPoint x="1560" y="680"/>
                            <mxPoint x="1560" y="617"/>
                        </Array>
                    </mxGeometry>
                </mxCell>
                <mxCell id="107" value="&amp;lt;Rotate&amp;gt;" style="edgeLabel;html=1;align=center;verticalAlign=middle;resizable=0;points=[];fontColor=default;" parent="103" vertex="1" connectable="0">
                    <mxGeometry x="-0.0901" y="-4" relative="1" as="geometry">
                        <mxPoint x="-20" y="-14" as="offset"/>
                    </mxGeometry>
                </mxCell>
                <mxCell id="104" style="edgeStyle=none;html=1;exitX=0.625;exitY=1;exitDx=0;exitDy=0;entryX=1;entryY=0.75;entryDx=0;entryDy=0;fontColor=default;startArrow=none;startFill=0;strokeWidth=3;fillColor=#60a917;strokeColor=#2D7600;" parent="1" source="69" target="69" edge="1">
                    <mxGeometry relative="1" as="geometry">
                        <Array as="points">
                            <mxPoint x="1475" y="480"/>
                            <mxPoint x="1560" y="480"/>
                            <mxPoint x="1560" y="417"/>
                        </Array>
                    </mxGeometry>
                </mxCell>
                <mxCell id="108" value="&amp;lt;Rotate&amp;gt;" style="edgeLabel;html=1;align=center;verticalAlign=middle;resizable=0;points=[];fontColor=default;" parent="104" vertex="1" connectable="0">
                    <mxGeometry x="-0.1373" y="2" relative="1" as="geometry">
                        <mxPoint x="-17" as="offset"/>
                    </mxGeometry>
                </mxCell>
                <mxCell id="105" style="edgeStyle=none;html=1;exitX=0.625;exitY=1;exitDx=0;exitDy=0;entryX=1;entryY=0.75;entryDx=0;entryDy=0;fontColor=default;startArrow=none;startFill=0;fillColor=#60a917;strokeColor=#2D7600;strokeWidth=3;" parent="1" source="78" target="78" edge="1">
                    <mxGeometry relative="1" as="geometry">
                        <Array as="points">
                            <mxPoint x="1475" y="280"/>
                            <mxPoint x="1560" y="280"/>
                            <mxPoint x="1560" y="217"/>
                        </Array>
                    </mxGeometry>
                </mxCell>
                <mxCell id="109" value="&amp;lt;Rotate&amp;gt;" style="edgeLabel;html=1;align=center;verticalAlign=middle;resizable=0;points=[];fontColor=default;" parent="105" vertex="1" connectable="0">
                    <mxGeometry x="-0.0415" y="1" relative="1" as="geometry">
                        <mxPoint x="-28" y="1" as="offset"/>
                    </mxGeometry>
                </mxCell>
                <mxCell id="111" style="edgeStyle=none;html=1;exitX=0.625;exitY=1;exitDx=0;exitDy=0;entryX=1;entryY=0.5;entryDx=0;entryDy=0;fontColor=default;startArrow=none;startFill=0;fillColor=#60a917;strokeColor=#2D7600;strokeWidth=3;" parent="1" source="63" target="63" edge="1">
                    <mxGeometry relative="1" as="geometry">
                        <Array as="points">
                            <mxPoint x="1915" y="480"/>
                            <mxPoint x="2000" y="480"/>
                            <mxPoint x="2000" y="400"/>
                        </Array>
                    </mxGeometry>
                </mxCell>
                <mxCell id="112" value="&amp;lt;Rotate&amp;gt;" style="edgeLabel;html=1;align=center;verticalAlign=middle;resizable=0;points=[];fontColor=default;" parent="111" vertex="1" connectable="0">
                    <mxGeometry x="-0.3736" y="-3" relative="1" as="geometry">
                        <mxPoint x="17" y="-18" as="offset"/>
                    </mxGeometry>
                </mxCell>
            </root>
        </mxGraphModel>
    </diagram>
    <diagram id="pDQT2moPUJqwNaYXxAtA" name="Press_Type">
        <mxGraphModel dx="2378" dy="779" grid="1" gridSize="10" guides="1" tooltips="1" connect="1" arrows="1" fold="1" page="1" pageScale="1" pageWidth="850" pageHeight="1100" math="0" shadow="0">
            <root>
                <mxCell id="0"/>
                <mxCell id="1" parent="0"/>
                <mxCell id="nSWgtQMnTu0tu7VOl3iV-5" style="edgeStyle=none;html=1;entryX=0;entryY=0.5;entryDx=0;entryDy=0;" parent="1" source="nSWgtQMnTu0tu7VOl3iV-1" target="nSWgtQMnTu0tu7VOl3iV-4" edge="1">
                    <mxGeometry relative="1" as="geometry"/>
                </mxCell>
                <mxCell id="nSWgtQMnTu0tu7VOl3iV-1" value="PushButton&lt;br&gt;Debounce" style="ellipse;whiteSpace=wrap;html=1;aspect=fixed;labelBackgroundColor=none;" parent="1" vertex="1">
                    <mxGeometry x="120" y="40" width="80" height="80" as="geometry"/>
                </mxCell>
                <mxCell id="nSWgtQMnTu0tu7VOl3iV-3" style="edgeStyle=none;html=1;entryX=0;entryY=0.5;entryDx=0;entryDy=0;" parent="1" source="nSWgtQMnTu0tu7VOl3iV-2" target="nSWgtQMnTu0tu7VOl3iV-1" edge="1">
                    <mxGeometry relative="1" as="geometry"/>
                </mxCell>
                <mxCell id="nSWgtQMnTu0tu7VOl3iV-2" value="Run" style="triangle;whiteSpace=wrap;html=1;labelBackgroundColor=none;" parent="1" vertex="1">
                    <mxGeometry x="-20" y="40" width="60" height="80" as="geometry"/>
                </mxCell>
                <mxCell id="nSWgtQMnTu0tu7VOl3iV-8" style="edgeStyle=none;html=1;entryX=0;entryY=0.5;entryDx=0;entryDy=0;" parent="1" source="nSWgtQMnTu0tu7VOl3iV-4" target="nSWgtQMnTu0tu7VOl3iV-7" edge="1">
                    <mxGeometry relative="1" as="geometry"/>
                </mxCell>
                <mxCell id="nSWgtQMnTu0tu7VOl3iV-11" value="False" style="edgeLabel;html=1;align=center;verticalAlign=middle;resizable=0;points=[];" parent="nSWgtQMnTu0tu7VOl3iV-8" vertex="1" connectable="0">
                    <mxGeometry x="-0.325" y="-1" relative="1" as="geometry">
                        <mxPoint as="offset"/>
                    </mxGeometry>
                </mxCell>
                <mxCell id="nSWgtQMnTu0tu7VOl3iV-10" style="edgeStyle=none;html=1;" parent="1" source="nSWgtQMnTu0tu7VOl3iV-4" target="nSWgtQMnTu0tu7VOl3iV-9" edge="1">
                    <mxGeometry relative="1" as="geometry"/>
                </mxCell>
                <mxCell id="nSWgtQMnTu0tu7VOl3iV-12" value="True" style="edgeLabel;html=1;align=center;verticalAlign=middle;resizable=0;points=[];" parent="nSWgtQMnTu0tu7VOl3iV-10" vertex="1" connectable="0">
                    <mxGeometry x="-0.3667" relative="1" as="geometry">
                        <mxPoint as="offset"/>
                    </mxGeometry>
                </mxCell>
                <mxCell id="nSWgtQMnTu0tu7VOl3iV-4" value="ButtonState&lt;br&gt;==&lt;br&gt;PrevButtonState" style="rhombus;whiteSpace=wrap;html=1;labelBackgroundColor=none;" parent="1" vertex="1">
                    <mxGeometry x="280" y="20" width="120" height="120" as="geometry"/>
                </mxCell>
                <mxCell id="nSWgtQMnTu0tu7VOl3iV-7" value="ButtonState&lt;br&gt;==&lt;br&gt;Pressed" style="rhombus;whiteSpace=wrap;html=1;labelBackgroundColor=none;" parent="1" vertex="1">
                    <mxGeometry x="480" y="40" width="80" height="80" as="geometry"/>
                </mxCell>
                <mxCell id="nSWgtQMnTu0tu7VOl3iV-14" style="edgeStyle=none;html=1;entryX=0.5;entryY=0;entryDx=0;entryDy=0;" parent="1" source="nSWgtQMnTu0tu7VOl3iV-9" target="nSWgtQMnTu0tu7VOl3iV-13" edge="1">
                    <mxGeometry relative="1" as="geometry"/>
                </mxCell>
                <mxCell id="nSWgtQMnTu0tu7VOl3iV-9" value="ButtonState&lt;br&gt;==&lt;br&gt;Pressed" style="rhombus;whiteSpace=wrap;html=1;labelBackgroundColor=none;" parent="1" vertex="1">
                    <mxGeometry x="300" y="200" width="80" height="80" as="geometry"/>
                </mxCell>
                <mxCell id="nSWgtQMnTu0tu7VOl3iV-13" value="return" style="ellipse;whiteSpace=wrap;html=1;aspect=fixed;labelBackgroundColor=none;" parent="1" vertex="1">
                    <mxGeometry x="300" y="510" width="80" height="80" as="geometry"/>
                </mxCell>
            </root>
        </mxGraphModel>
    </diagram>
    <diagram id="TEW5t-aE0zl7EU1zqmLh" name="Page-3">
        <mxGraphModel dx="1800" dy="2213" grid="1" gridSize="10" guides="1" tooltips="1" connect="1" arrows="1" fold="1" page="1" pageScale="1" pageWidth="850" pageHeight="1100" math="0" shadow="0">
            <root>
                <mxCell id="0"/>
                <mxCell id="1" parent="0"/>
                <mxCell id="zXaexBkUVFtzwMXmKPZJ-1" value="OFF" style="ellipse;whiteSpace=wrap;html=1;aspect=fixed;" vertex="1" parent="1">
                    <mxGeometry x="450" y="-50" width="80" height="80" as="geometry"/>
                </mxCell>
                <mxCell id="zXaexBkUVFtzwMXmKPZJ-3" value="ON" style="whiteSpace=wrap;html=1;aspect=fixed;align=left;verticalAlign=top;" vertex="1" parent="1">
                    <mxGeometry x="200" y="80" width="720" height="720" as="geometry"/>
                </mxCell>
                <mxCell id="zXaexBkUVFtzwMXmKPZJ-9" style="edgeStyle=none;html=1;entryX=0.5;entryY=0;entryDx=0;entryDy=0;exitX=0.5;exitY=1;exitDx=0;exitDy=0;" edge="1" parent="1" source="zXaexBkUVFtzwMXmKPZJ-28" target="zXaexBkUVFtzwMXmKPZJ-8">
                    <mxGeometry relative="1" as="geometry"/>
                </mxCell>
                <mxCell id="zXaexBkUVFtzwMXmKPZJ-54" value="Rotate" style="edgeLabel;html=1;align=center;verticalAlign=middle;resizable=0;points=[];" vertex="1" connectable="0" parent="zXaexBkUVFtzwMXmKPZJ-9">
                    <mxGeometry x="0.3636" y="1" relative="1" as="geometry">
                        <mxPoint as="offset"/>
                    </mxGeometry>
                </mxCell>
                <mxCell id="zXaexBkUVFtzwMXmKPZJ-31" style="edgeStyle=none;html=1;exitX=0;exitY=0;exitDx=0;exitDy=0;entryX=1;entryY=0;entryDx=0;entryDy=0;strokeWidth=2;startArrow=none;startFill=0;endArrow=classic;endFill=1;endSize=2;" edge="1" parent="1" source="zXaexBkUVFtzwMXmKPZJ-5" target="zXaexBkUVFtzwMXmKPZJ-28">
                    <mxGeometry relative="1" as="geometry">
                        <Array as="points">
                            <mxPoint x="440" y="350"/>
                            <mxPoint x="360" y="350"/>
                        </Array>
                    </mxGeometry>
                </mxCell>
                <mxCell id="zXaexBkUVFtzwMXmKPZJ-33" value="Long_Press(2)" style="edgeLabel;html=1;align=center;verticalAlign=middle;resizable=0;points=[];" vertex="1" connectable="0" parent="zXaexBkUVFtzwMXmKPZJ-31">
                    <mxGeometry x="-0.2121" y="1" relative="1" as="geometry">
                        <mxPoint x="-15" y="-11" as="offset"/>
                    </mxGeometry>
                </mxCell>
                <mxCell id="zXaexBkUVFtzwMXmKPZJ-50" style="edgeStyle=none;html=1;exitX=0;exitY=0;exitDx=0;exitDy=0;entryX=1;entryY=1;entryDx=0;entryDy=0;strokeWidth=2;startArrow=none;startFill=0;endArrow=classicThin;endFill=1;endSize=2;" edge="1" parent="1" source="zXaexBkUVFtzwMXmKPZJ-5" target="zXaexBkUVFtzwMXmKPZJ-6">
                    <mxGeometry relative="1" as="geometry"/>
                </mxCell>
                <mxCell id="zXaexBkUVFtzwMXmKPZJ-51" value="Long_Press(5)" style="edgeLabel;html=1;align=center;verticalAlign=middle;resizable=0;points=[];" vertex="1" connectable="0" parent="zXaexBkUVFtzwMXmKPZJ-50">
                    <mxGeometry x="0.1482" relative="1" as="geometry">
                        <mxPoint as="offset"/>
                    </mxGeometry>
                </mxCell>
                <mxCell id="zXaexBkUVFtzwMXmKPZJ-5" value="Active_State" style="ellipse;whiteSpace=wrap;html=1;aspect=fixed;" vertex="1" parent="1">
                    <mxGeometry x="450" y="360" width="80" height="80" as="geometry"/>
                </mxCell>
                <mxCell id="zXaexBkUVFtzwMXmKPZJ-4" style="edgeStyle=none;html=1;entryX=0.5;entryY=0;entryDx=0;entryDy=0;" edge="1" parent="1" source="zXaexBkUVFtzwMXmKPZJ-1" target="zXaexBkUVFtzwMXmKPZJ-5">
                    <mxGeometry relative="1" as="geometry"/>
                </mxCell>
                <mxCell id="zXaexBkUVFtzwMXmKPZJ-53" value="Short_Press" style="edgeLabel;html=1;align=center;verticalAlign=middle;resizable=0;points=[];" vertex="1" connectable="0" parent="zXaexBkUVFtzwMXmKPZJ-4">
                    <mxGeometry x="0.1636" y="1" relative="1" as="geometry">
                        <mxPoint as="offset"/>
                    </mxGeometry>
                </mxCell>
                <mxCell id="zXaexBkUVFtzwMXmKPZJ-6" value="Default&lt;br&gt;Pattern" style="ellipse;whiteSpace=wrap;html=1;aspect=fixed;" vertex="1" parent="1">
                    <mxGeometry x="270" y="180" width="80" height="80" as="geometry"/>
                </mxCell>
                <mxCell id="zXaexBkUVFtzwMXmKPZJ-7" value="" style="endArrow=none;dashed=1;html=1;dashPattern=1 3;strokeWidth=2;entryX=0.5;entryY=1;entryDx=0;entryDy=0;exitX=0.5;exitY=0;exitDx=0;exitDy=0;" edge="1" parent="1" source="zXaexBkUVFtzwMXmKPZJ-28" target="zXaexBkUVFtzwMXmKPZJ-6">
                    <mxGeometry width="50" height="50" relative="1" as="geometry">
                        <mxPoint x="420" y="310" as="sourcePoint"/>
                        <mxPoint x="470" y="260" as="targetPoint"/>
                    </mxGeometry>
                </mxCell>
                <mxCell id="zXaexBkUVFtzwMXmKPZJ-8" value="Next_Pattern" style="ellipse;whiteSpace=wrap;html=1;aspect=fixed;" vertex="1" parent="1">
                    <mxGeometry x="270" y="550" width="80" height="80" as="geometry"/>
                </mxCell>
                <mxCell id="zXaexBkUVFtzwMXmKPZJ-10" value="" style="endArrow=none;dashed=1;html=1;dashPattern=1 3;strokeWidth=2;entryX=0.5;entryY=1;entryDx=0;entryDy=0;" edge="1" parent="1" target="zXaexBkUVFtzwMXmKPZJ-8">
                    <mxGeometry width="50" height="50" relative="1" as="geometry">
                        <mxPoint x="310" y="840" as="sourcePoint"/>
                        <mxPoint x="470" y="660" as="targetPoint"/>
                    </mxGeometry>
                </mxCell>
                <mxCell id="zXaexBkUVFtzwMXmKPZJ-11" value="" style="endArrow=none;dashed=1;html=1;dashPattern=1 3;strokeWidth=2;exitX=0.5;exitY=0;exitDx=0;exitDy=0;" edge="1" parent="1" source="zXaexBkUVFtzwMXmKPZJ-6">
                    <mxGeometry width="50" height="50" relative="1" as="geometry">
                        <mxPoint x="430" y="100" as="sourcePoint"/>
                        <mxPoint x="310" y="40" as="targetPoint"/>
                    </mxGeometry>
                </mxCell>
                <mxCell id="zXaexBkUVFtzwMXmKPZJ-17" style="edgeStyle=none;html=1;entryX=0.5;entryY=0;entryDx=0;entryDy=0;exitX=0.5;exitY=1;exitDx=0;exitDy=0;" edge="1" parent="1" source="zXaexBkUVFtzwMXmKPZJ-12" target="zXaexBkUVFtzwMXmKPZJ-14">
                    <mxGeometry relative="1" as="geometry"/>
                </mxCell>
                <mxCell id="zXaexBkUVFtzwMXmKPZJ-36" value="Multi_Press(2)" style="edgeLabel;html=1;align=center;verticalAlign=middle;resizable=0;points=[];" vertex="1" connectable="0" parent="zXaexBkUVFtzwMXmKPZJ-17">
                    <mxGeometry x="0.1692" y="1" relative="1" as="geometry">
                        <mxPoint as="offset"/>
                    </mxGeometry>
                </mxCell>
                <mxCell id="zXaexBkUVFtzwMXmKPZJ-47" style="edgeStyle=none;html=1;exitX=0.25;exitY=0;exitDx=0;exitDy=0;entryX=1;entryY=1;entryDx=0;entryDy=0;strokeWidth=2;startArrow=none;startFill=0;endArrow=classicThin;endFill=1;endSize=2;" edge="1" parent="1" source="zXaexBkUVFtzwMXmKPZJ-12" target="zXaexBkUVFtzwMXmKPZJ-1">
                    <mxGeometry relative="1" as="geometry">
                        <Array as="points">
                            <mxPoint x="610" y="330"/>
                            <mxPoint x="550" y="330"/>
                            <mxPoint x="550" y="40"/>
                        </Array>
                    </mxGeometry>
                </mxCell>
                <mxCell id="zXaexBkUVFtzwMXmKPZJ-48" value="Short_Press" style="edgeLabel;html=1;align=center;verticalAlign=middle;resizable=0;points=[];" vertex="1" connectable="0" parent="zXaexBkUVFtzwMXmKPZJ-47">
                    <mxGeometry x="-0.6145" y="-1" relative="1" as="geometry">
                        <mxPoint x="13" as="offset"/>
                    </mxGeometry>
                </mxCell>
                <mxCell id="zXaexBkUVFtzwMXmKPZJ-12" value="Change_Intensity" style="rounded=1;whiteSpace=wrap;html=1;" vertex="1" parent="1">
                    <mxGeometry x="580" y="370" width="120" height="60" as="geometry"/>
                </mxCell>
                <mxCell id="zXaexBkUVFtzwMXmKPZJ-13" value="" style="shape=link;html=1;exitX=1;exitY=0.5;exitDx=0;exitDy=0;entryX=0;entryY=0.5;entryDx=0;entryDy=0;" edge="1" parent="1" source="zXaexBkUVFtzwMXmKPZJ-5" target="zXaexBkUVFtzwMXmKPZJ-12">
                    <mxGeometry width="100" relative="1" as="geometry">
                        <mxPoint x="500" y="400" as="sourcePoint"/>
                        <mxPoint x="600" y="400" as="targetPoint"/>
                    </mxGeometry>
                </mxCell>
                <mxCell id="zXaexBkUVFtzwMXmKPZJ-21" style="edgeStyle=none;html=1;entryX=1;entryY=0.75;entryDx=0;entryDy=0;exitX=1;exitY=0.5;exitDx=0;exitDy=0;" edge="1" parent="1" source="zXaexBkUVFtzwMXmKPZJ-14" target="zXaexBkUVFtzwMXmKPZJ-12">
                    <mxGeometry relative="1" as="geometry">
                        <Array as="points">
                            <mxPoint x="750" y="590"/>
                            <mxPoint x="750" y="415"/>
                        </Array>
                    </mxGeometry>
                </mxCell>
                <mxCell id="zXaexBkUVFtzwMXmKPZJ-39" value="Multi_Press(3)" style="edgeLabel;html=1;align=center;verticalAlign=middle;resizable=0;points=[];" vertex="1" connectable="0" parent="zXaexBkUVFtzwMXmKPZJ-21">
                    <mxGeometry x="-0.1648" y="-1" relative="1" as="geometry">
                        <mxPoint y="-15" as="offset"/>
                    </mxGeometry>
                </mxCell>
                <mxCell id="zXaexBkUVFtzwMXmKPZJ-14" value="Customize_0" style="rounded=1;whiteSpace=wrap;html=1;" vertex="1" parent="1">
                    <mxGeometry x="580" y="560" width="120" height="60" as="geometry"/>
                </mxCell>
                <mxCell id="zXaexBkUVFtzwMXmKPZJ-16" style="edgeStyle=none;html=1;entryX=0.5;entryY=0;entryDx=0;entryDy=0;exitX=0.5;exitY=1;exitDx=0;exitDy=0;" edge="1" parent="1" source="zXaexBkUVFtzwMXmKPZJ-15" target="zXaexBkUVFtzwMXmKPZJ-12">
                    <mxGeometry relative="1" as="geometry"/>
                </mxCell>
                <mxCell id="zXaexBkUVFtzwMXmKPZJ-37" value="Multi_Press(2)" style="edgeLabel;html=1;align=center;verticalAlign=middle;resizable=0;points=[];" vertex="1" connectable="0" parent="zXaexBkUVFtzwMXmKPZJ-16">
                    <mxGeometry x="0.2569" relative="1" as="geometry">
                        <mxPoint y="-17" as="offset"/>
                    </mxGeometry>
                </mxCell>
                <mxCell id="zXaexBkUVFtzwMXmKPZJ-20" style="edgeStyle=none;html=1;entryX=1;entryY=0.25;entryDx=0;entryDy=0;exitX=1;exitY=0.5;exitDx=0;exitDy=0;" edge="1" parent="1" source="zXaexBkUVFtzwMXmKPZJ-15" target="zXaexBkUVFtzwMXmKPZJ-12">
                    <mxGeometry relative="1" as="geometry">
                        <Array as="points">
                            <mxPoint x="750" y="170"/>
                            <mxPoint x="750" y="385"/>
                        </Array>
                    </mxGeometry>
                </mxCell>
                <mxCell id="zXaexBkUVFtzwMXmKPZJ-38" value="Multi_Press(3)" style="edgeLabel;html=1;align=center;verticalAlign=middle;resizable=0;points=[];" vertex="1" connectable="0" parent="zXaexBkUVFtzwMXmKPZJ-20">
                    <mxGeometry x="0.1492" y="1" relative="1" as="geometry">
                        <mxPoint y="-11" as="offset"/>
                    </mxGeometry>
                </mxCell>
                <mxCell id="zXaexBkUVFtzwMXmKPZJ-24" style="edgeStyle=none;html=1;exitX=0.75;exitY=1;exitDx=0;exitDy=0;entryX=0;entryY=0.5;entryDx=0;entryDy=0;strokeWidth=2;startArrow=none;startFill=0;endArrow=oval;endFill=1;endSize=6;entryPerimeter=0;dashed=1;" edge="1" parent="1" source="zXaexBkUVFtzwMXmKPZJ-15" target="zXaexBkUVFtzwMXmKPZJ-23">
                    <mxGeometry relative="1" as="geometry">
                        <Array as="points">
                            <mxPoint x="670" y="240"/>
                            <mxPoint x="1000" y="240"/>
                            <mxPoint x="1000" y="400"/>
                        </Array>
                    </mxGeometry>
                </mxCell>
                <mxCell id="zXaexBkUVFtzwMXmKPZJ-49" value="Short_Press" style="edgeLabel;html=1;align=center;verticalAlign=middle;resizable=0;points=[];" vertex="1" connectable="0" parent="zXaexBkUVFtzwMXmKPZJ-24">
                    <mxGeometry x="-0.1727" y="-1" relative="1" as="geometry">
                        <mxPoint as="offset"/>
                    </mxGeometry>
                </mxCell>
                <mxCell id="zXaexBkUVFtzwMXmKPZJ-45" style="edgeStyle=none;html=1;exitX=1;exitY=0.75;exitDx=0;exitDy=0;entryX=0.5;entryY=0;entryDx=0;entryDy=0;strokeWidth=2;startArrow=none;startFill=0;endArrow=oval;endFill=1;endSize=6;" edge="1" parent="1" source="zXaexBkUVFtzwMXmKPZJ-15" target="zXaexBkUVFtzwMXmKPZJ-44">
                    <mxGeometry relative="1" as="geometry">
                        <Array as="points">
                            <mxPoint x="1120" y="180"/>
                            <mxPoint x="1120" y="720"/>
                        </Array>
                    </mxGeometry>
                </mxCell>
                <mxCell id="zXaexBkUVFtzwMXmKPZJ-46" value="Rotate" style="edgeLabel;html=1;align=center;verticalAlign=middle;resizable=0;points=[];" vertex="1" connectable="0" parent="zXaexBkUVFtzwMXmKPZJ-45">
                    <mxGeometry x="-0.7138" y="1" relative="1" as="geometry">
                        <mxPoint as="offset"/>
                    </mxGeometry>
                </mxCell>
                <mxCell id="zXaexBkUVFtzwMXmKPZJ-15" value="Customize_n" style="rounded=1;whiteSpace=wrap;html=1;" vertex="1" parent="1">
                    <mxGeometry x="580" y="140" width="120" height="60" as="geometry"/>
                </mxCell>
                <mxCell id="zXaexBkUVFtzwMXmKPZJ-18" value="" style="endArrow=none;dashed=1;html=1;dashPattern=1 3;strokeWidth=2;exitX=0.5;exitY=0;exitDx=0;exitDy=0;" edge="1" parent="1" source="zXaexBkUVFtzwMXmKPZJ-15">
                    <mxGeometry width="50" height="50" relative="1" as="geometry">
                        <mxPoint x="640" y="90" as="sourcePoint"/>
                        <mxPoint x="640" y="40" as="targetPoint"/>
                    </mxGeometry>
                </mxCell>
                <mxCell id="zXaexBkUVFtzwMXmKPZJ-19" value="" style="endArrow=none;dashed=1;html=1;dashPattern=1 3;strokeWidth=2;entryX=0.5;entryY=1;entryDx=0;entryDy=0;" edge="1" parent="1" target="zXaexBkUVFtzwMXmKPZJ-14">
                    <mxGeometry width="50" height="50" relative="1" as="geometry">
                        <mxPoint x="640" y="840" as="sourcePoint"/>
                        <mxPoint x="570" y="650" as="targetPoint"/>
                    </mxGeometry>
                </mxCell>
                <mxCell id="zXaexBkUVFtzwMXmKPZJ-22" value="" style="endArrow=classic;dashed=1;html=1;dashPattern=1 3;strokeWidth=2;entryX=1;entryY=0.5;entryDx=0;entryDy=0;startArrow=none;startFill=0;endFill=1;endSize=3;" edge="1" parent="1" target="zXaexBkUVFtzwMXmKPZJ-12">
                    <mxGeometry width="50" height="50" relative="1" as="geometry">
                        <mxPoint x="800" y="830" as="sourcePoint"/>
                        <mxPoint x="770" y="770" as="targetPoint"/>
                        <Array as="points">
                            <mxPoint x="800" y="400"/>
                        </Array>
                    </mxGeometry>
                </mxCell>
                <mxCell id="zXaexBkUVFtzwMXmKPZJ-23" value="Update&lt;br&gt;Lights" style="ellipse;whiteSpace=wrap;html=1;aspect=fixed;" vertex="1" parent="1">
                    <mxGeometry x="1020" y="360" width="80" height="80" as="geometry"/>
                </mxCell>
                <mxCell id="zXaexBkUVFtzwMXmKPZJ-25" style="edgeStyle=none;html=1;exitX=0.75;exitY=1;exitDx=0;exitDy=0;entryX=0;entryY=0.5;entryDx=0;entryDy=0;strokeWidth=2;startArrow=none;startFill=0;endArrow=oval;endFill=1;endSize=6;dashed=1;" edge="1" parent="1" source="zXaexBkUVFtzwMXmKPZJ-12" target="zXaexBkUVFtzwMXmKPZJ-23">
                    <mxGeometry relative="1" as="geometry">
                        <mxPoint x="680" y="210" as="sourcePoint"/>
                        <mxPoint x="1050" y="410" as="targetPoint"/>
                        <Array as="points">
                            <mxPoint x="670" y="480"/>
                            <mxPoint x="1000" y="480"/>
                            <mxPoint x="1000" y="400"/>
                        </Array>
                    </mxGeometry>
                </mxCell>
                <mxCell id="zXaexBkUVFtzwMXmKPZJ-40" value="Rotate" style="edgeLabel;html=1;align=center;verticalAlign=middle;resizable=0;points=[];" vertex="1" connectable="0" parent="zXaexBkUVFtzwMXmKPZJ-25">
                    <mxGeometry x="-0.0667" y="1" relative="1" as="geometry">
                        <mxPoint as="offset"/>
                    </mxGeometry>
                </mxCell>
                <mxCell id="zXaexBkUVFtzwMXmKPZJ-26" style="edgeStyle=none;html=1;entryX=0;entryY=0.5;entryDx=0;entryDy=0;strokeWidth=2;startArrow=none;startFill=0;endArrow=oval;endFill=1;endSize=6;dashed=1;exitX=0.75;exitY=1;exitDx=0;exitDy=0;" edge="1" parent="1" source="zXaexBkUVFtzwMXmKPZJ-14" target="zXaexBkUVFtzwMXmKPZJ-23">
                    <mxGeometry relative="1" as="geometry">
                        <mxPoint x="670" y="620" as="sourcePoint"/>
                        <mxPoint x="1040" y="590" as="targetPoint"/>
                        <Array as="points">
                            <mxPoint x="670" y="670"/>
                            <mxPoint x="1000" y="670"/>
                            <mxPoint x="1000" y="400"/>
                        </Array>
                    </mxGeometry>
                </mxCell>
                <mxCell id="zXaexBkUVFtzwMXmKPZJ-41" value="Short_Press" style="edgeLabel;html=1;align=center;verticalAlign=middle;resizable=0;points=[];" vertex="1" connectable="0" parent="zXaexBkUVFtzwMXmKPZJ-26">
                    <mxGeometry x="-0.3164" y="-2" relative="1" as="geometry">
                        <mxPoint as="offset"/>
                    </mxGeometry>
                </mxCell>
                <mxCell id="zXaexBkUVFtzwMXmKPZJ-27" style="edgeStyle=none;html=1;entryX=1;entryY=0;entryDx=0;entryDy=0;strokeWidth=2;startArrow=none;startFill=0;endArrow=classic;endFill=1;endSize=2;exitX=0;exitY=1;exitDx=0;exitDy=0;" edge="1" parent="1" source="zXaexBkUVFtzwMXmKPZJ-1" target="zXaexBkUVFtzwMXmKPZJ-6">
                    <mxGeometry relative="1" as="geometry"/>
                </mxCell>
                <mxCell id="zXaexBkUVFtzwMXmKPZJ-52" value="Multi_Press(2)" style="edgeLabel;html=1;align=center;verticalAlign=middle;resizable=0;points=[];" vertex="1" connectable="0" parent="zXaexBkUVFtzwMXmKPZJ-27">
                    <mxGeometry x="0.3241" y="-1" relative="1" as="geometry">
                        <mxPoint y="-1" as="offset"/>
                    </mxGeometry>
                </mxCell>
                <mxCell id="zXaexBkUVFtzwMXmKPZJ-30" style="edgeStyle=none;shape=link;html=1;entryX=0;entryY=0.5;entryDx=0;entryDy=0;strokeWidth=2;startArrow=none;startFill=0;endArrow=classic;endFill=1;endSize=2;" edge="1" parent="1" source="zXaexBkUVFtzwMXmKPZJ-28" target="zXaexBkUVFtzwMXmKPZJ-5">
                    <mxGeometry relative="1" as="geometry"/>
                </mxCell>
                <mxCell id="zXaexBkUVFtzwMXmKPZJ-32" style="edgeStyle=none;html=1;exitX=1;exitY=1;exitDx=0;exitDy=0;entryX=0;entryY=1;entryDx=0;entryDy=0;strokeWidth=2;startArrow=none;startFill=0;endArrow=classic;endFill=1;endSize=2;" edge="1" parent="1" source="zXaexBkUVFtzwMXmKPZJ-28" target="zXaexBkUVFtzwMXmKPZJ-5">
                    <mxGeometry relative="1" as="geometry">
                        <Array as="points">
                            <mxPoint x="360" y="450"/>
                            <mxPoint x="440" y="450"/>
                        </Array>
                    </mxGeometry>
                </mxCell>
                <mxCell id="zXaexBkUVFtzwMXmKPZJ-34" value="Short_Press" style="edgeLabel;html=1;align=center;verticalAlign=middle;resizable=0;points=[];" vertex="1" connectable="0" parent="zXaexBkUVFtzwMXmKPZJ-32">
                    <mxGeometry x="-0.1886" y="-1" relative="1" as="geometry">
                        <mxPoint x="13" y="-11" as="offset"/>
                    </mxGeometry>
                </mxCell>
                <mxCell id="zXaexBkUVFtzwMXmKPZJ-28" value="Last_Pattern" style="ellipse;whiteSpace=wrap;html=1;aspect=fixed;" vertex="1" parent="1">
                    <mxGeometry x="270" y="360" width="80" height="80" as="geometry"/>
                </mxCell>
                <mxCell id="zXaexBkUVFtzwMXmKPZJ-42" style="edgeStyle=none;html=1;exitX=1;exitY=0.75;exitDx=0;exitDy=0;entryX=0.5;entryY=0;entryDx=0;entryDy=0;strokeWidth=2;startArrow=none;startFill=0;endArrow=oval;endFill=1;endSize=6;" edge="1" parent="1" source="zXaexBkUVFtzwMXmKPZJ-14" target="zXaexBkUVFtzwMXmKPZJ-44">
                    <mxGeometry relative="1" as="geometry">
                        <Array as="points">
                            <mxPoint x="1120" y="600"/>
                            <mxPoint x="1120" y="680"/>
                        </Array>
                    </mxGeometry>
                </mxCell>
                <mxCell id="zXaexBkUVFtzwMXmKPZJ-43" value="Rotate" style="edgeLabel;html=1;align=center;verticalAlign=middle;resizable=0;points=[];" vertex="1" connectable="0" parent="zXaexBkUVFtzwMXmKPZJ-42">
                    <mxGeometry x="0.1313" y="-2" relative="1" as="geometry">
                        <mxPoint x="-259" y="-2" as="offset"/>
                    </mxGeometry>
                </mxCell>
                <mxCell id="zXaexBkUVFtzwMXmKPZJ-44" value="Update&lt;br&gt;Ring" style="ellipse;whiteSpace=wrap;html=1;aspect=fixed;" vertex="1" parent="1">
                    <mxGeometry x="1080" y="760" width="80" height="80" as="geometry"/>
                </mxCell>
            </root>
        </mxGraphModel>
    </diagram>
</mxfile>